<svg width="476" height="489" viewBox="0 0 476 489" fill="none" xmlns="http://www.w3.org/2000/svg">
<g opacity="0.52" clip-path="url(#clip0_114_116)">
<path d="M238.741 0L311.402 91.8727H428.548L403.34 207.455L476 297.845L370.717 349.709L344.025 463.809L238.741 413.427L131.975 463.809L106.766 349.709L0 297.845L74.1433 207.455L47.4517 91.8727H164.598L238.741 0Z" stroke="black" stroke-miterlimit="10" stroke-linecap="round" stroke-linejoin="round"/>
<path d="M238.741 0V487.518" stroke="black" stroke-miterlimit="10" stroke-linecap="round" stroke-linejoin="round"/>
<path d="M238.741 0L47.4517 91.8727L0 297.845L131.975 463.809H344.025L476 297.845L428.548 91.8727L238.741 0Z" stroke="black" stroke-miterlimit="10" stroke-linecap="round" stroke-linejoin="round"/>
<path d="M238.741 487.518L428.548 395.646L476 189.673L344.025 25.1911H131.975L0 189.673L47.4517 395.646L238.741 487.518Z" stroke="black" stroke-miterlimit="10" stroke-linecap="round" stroke-linejoin="round"/>
<path d="M47.4512 91.8729L428.548 395.646" stroke="black" stroke-miterlimit="10" stroke-linecap="round" stroke-linejoin="round"/>
<path d="M428.548 91.8729L47.4512 395.646" stroke="black" stroke-miterlimit="10" stroke-linecap="round" stroke-linejoin="round"/>
<path d="M47.4512 395.645L475.999 189.673" stroke="black" stroke-miterlimit="10" stroke-linecap="round" stroke-linejoin="round"/>
<path d="M428.548 395.645L0 189.673" stroke="black" stroke-miterlimit="10" stroke-linecap="round" stroke-linejoin="round"/>
<path d="M238.742 349.709C296.888 349.709 344.025 302.606 344.025 244.5C344.025 186.395 296.888 139.291 238.742 139.291C180.595 139.291 133.458 186.395 133.458 244.5C133.458 302.606 180.595 349.709 238.742 349.709Z" stroke="black" stroke-miterlimit="10" stroke-linecap="round" stroke-linejoin="round"/>
<path d="M428.548 395.645L238.741 0" stroke="black" stroke-miterlimit="10" stroke-linecap="round" stroke-linejoin="round"/>
<path d="M47.4512 395.645L238.741 0" stroke="black" stroke-miterlimit="10" stroke-linecap="round" stroke-linejoin="round"/>
<path d="M131.976 25.1911L476 189.673" stroke="black" stroke-miterlimit="10" stroke-linecap="round" stroke-linejoin="round"/>
<path d="M344.025 25.1911L0 189.673" stroke="black" stroke-miterlimit="10" stroke-linecap="round" stroke-linejoin="round"/>
<path d="M344.025 463.809L238.741 0" stroke="black" stroke-miterlimit="10" stroke-linecap="round" stroke-linejoin="round"/>
<path d="M131.976 463.809L238.742 0" stroke="black" stroke-miterlimit="10" stroke-linecap="round" stroke-linejoin="round"/>
<path d="M344.025 463.809L311.402 91.8729" stroke="black" stroke-miterlimit="10" stroke-linecap="round" stroke-linejoin="round"/>
<path d="M131.976 463.809L164.599 91.8729" stroke="black" stroke-miterlimit="10" stroke-linecap="round" stroke-linejoin="round"/>
</g>
<g clip-path="url(#clip1_114_116)">
<path d="M113.186 239.001C121.362 239.001 122.232 237.087 122.232 228.272V180.541C122.232 171.725 121.362 169.811 113.186 169.811V168.941H147.98C170.365 168.941 184.689 186.108 184.689 204.493C184.689 224.502 168.799 239.871 149.372 239.871H113.186V239.001ZM146.415 238.595C166.944 238.595 172.511 214.41 172.627 197.939C172.627 180.251 165.784 170.275 145.139 170.275H133.946V233.201C133.946 237.725 140.442 238.595 146.415 238.595ZM186.719 214.932C186.719 200.897 197.331 189.182 212.583 189.182C225.979 189.182 234.968 199.737 234.968 212.729L200.173 226.59C203.13 234.593 208.929 239.929 215.598 239.929C225.283 239.929 227.835 229.837 229.226 220.442L236.243 226.822C232.01 235.753 223.021 241.611 212.583 241.611C198.433 241.553 186.719 230.069 186.719 214.932ZM199.709 225.256L208.465 221.718C218.498 217.658 224.413 215.222 224.413 203.391C224.413 195.736 221.108 190.4 212.699 190.4C202.782 190.4 197.911 202.463 197.911 213.308C197.911 217.716 198.549 221.776 199.709 225.256ZM237.577 221.66V202.521C237.577 193.706 236.707 191.734 228.531 191.734V190.864H248.248V223.226C248.248 231.983 249.639 239.813 257.7 239.813C266.863 239.813 273.59 226.59 273.59 214.584V202.463C273.59 193.648 272.72 191.676 264.543 191.676V190.806H284.028V237.145L279.099 237.667V238.537L291.973 238.943V239.813H273.532V225.314H273.3C270.516 233.839 265.239 241.495 255.439 241.495C243.144 241.553 237.577 232.969 237.577 221.66ZM289.016 234.013L295.511 227.112C296.67 230.707 302.354 240.335 311.052 240.335C317.431 240.335 321.723 235.753 321.723 230.533C321.723 224.792 316.272 222.124 305.775 218.18C296.96 214.874 291.219 212.555 291.219 203.275C291.219 196.026 297.888 189.24 307.631 189.24C317.837 189.24 326.826 193.59 326.826 193.59L322.129 201.593C319.867 196.896 314.358 190.516 306.819 190.516C302.47 190.516 298.004 194.228 298.004 199.041C298.004 205.537 304.615 206.813 312.908 209.887C325.144 214.468 329.32 218.702 329.32 225.836C329.32 234.999 320.157 241.611 309.429 241.611C302.122 241.553 292.611 237.319 289.016 234.013ZM142.587 272.465C142.587 258.43 153.2 246.714 168.451 246.714C181.847 246.714 190.836 257.27 190.836 270.261L156.041 284.122C158.999 292.125 164.798 297.461 171.467 297.461C181.152 297.461 183.703 287.37 185.095 277.974L192.112 284.354C187.879 293.285 178.89 299.143 168.451 299.143C154.301 299.085 142.587 287.602 142.587 272.465ZM155.577 282.788L164.334 279.25C174.367 275.191 180.282 272.755 180.282 260.923C180.282 253.268 176.976 247.932 168.567 247.932C158.709 247.99 153.78 259.995 153.78 270.841C153.78 275.249 154.417 279.25 155.577 282.788ZM209.683 258.198C213.627 264.403 215.308 267.013 215.308 267.013L221.572 257.966C226.559 250.6 227.139 249.208 217.338 249.208V248.396H236.417V249.266C230.676 249.266 228.415 250.658 223.427 258.024L216.178 268.463L228.299 287.66C234.04 296.359 238.389 296.591 244.13 296.591V297.461H221.166C220.934 295.431 220.412 293.517 219.136 291.487L209.045 275.654L200.637 287.776C195.649 295.083 195.127 296.475 204.87 296.475V297.345H185.907V296.533C191.532 296.533 193.794 295.141 198.781 287.834L208.176 274.321L197.969 258.256C193.156 250.774 191.068 249.324 185.385 249.324V248.396H207.886C207.886 248.396 205.74 251.992 209.683 258.198ZM229.458 311.438L237.751 304.015C239.259 309.35 245.232 319.558 255.728 319.558C268.313 319.558 272.314 312.54 272.314 305.117C272.314 296.997 264.891 292.763 250.045 287.138C237.461 282.324 230.328 275.538 230.328 266.549C230.328 255.588 242.274 246.656 255.033 246.656C265.587 246.656 274.402 251.644 280.259 255.588L274.402 264.867C272.488 256.748 266.631 247.932 254.801 247.932C245.406 247.932 237.983 253.79 237.983 261.445C237.983 269.101 244.826 272.117 256.714 276.698C274.17 283.368 281.303 290.328 281.303 300.245C281.303 313.352 268.951 320.892 254.917 320.892C245.116 320.834 234.446 316.542 229.458 311.438ZM283.216 294.213C283.216 280.12 293.829 268.463 309.081 268.463C324.738 268.463 335.351 280.178 335.351 294.213C335.351 309.35 323.636 320.834 309.081 320.834C294.931 320.834 283.216 309.292 283.216 294.213ZM313.082 319.326C323.404 317.412 326.072 306.335 323.926 292.821C321.781 280.236 315.866 267.883 305.195 269.913C294.351 271.827 292.727 285.688 294.873 298.273C297.134 311.902 303.107 321.24 313.082 319.326ZM328.624 318.282C336.801 318.282 337.67 316.368 337.67 307.552V257.212C337.67 248.396 337.264 246.772 329.9 250.368L329.61 249.498L348.341 240.335V316.484L343.238 317.006V317.876L357.387 318.282V319.152H328.624V318.282Z" fill="black"/>
</g>
<defs>
<clipPath id="clip0_114_116">
<rect width="476" height="489" fill="white"/>
</clipPath>
<clipPath id="clip1_114_116">
<rect width="244.202" height="151.892" fill="white" transform="translate(113.186 168.941)"/>
</clipPath>
</defs>
</svg>
